<svg xmlns="http://www.w3.org/2000/svg" xmlns:xlink="http://www.w3.org/1999/xlink" id="svg" width="400" height="371.196" version="1.1" viewBox="0 0 400 371.196"><g id="svgg"><path id="path0" fill="#000" fill-rule="evenodd" stroke="none" d="M182.358 131.386 C 182.358 131.540,187.999 137.305,194.893 144.196 L 207.428 156.727 219.963 144.210 C 226.857 137.325,232.498 131.560,232.498 131.399 C 232.498 131.237,221.216 131.105,207.428 131.105 C 193.640 131.105,182.358 131.231,182.358 131.386 M145.490 149.761 L 145.577 167.674 181.887 203.985 L 218.197 240.297 236.396 240.297 L 254.595 240.297 200.371 186.072 C 170.548 156.249,145.980 131.848,145.776 131.848 C 145.531 131.848,145.434 137.993,145.490 149.761 M145.497 222.005 C 145.549 231.555,145.591 239.578,145.590 239.833 C 145.590 240.198,149.458 240.297,163.694 240.297 L 181.798 240.297 163.974 222.470 C 154.171 212.665,145.982 204.642,145.777 204.642 C 145.531 204.642,145.436 210.570,145.497 222.005"/></g></svg>